<?xml version="1.0" standalone="no"?>
<!DOCTYPE svg PUBLIC "-//W3C//DTD SVG 20010904//EN"
 "http://www.w3.org/TR/2001/REC-SVG-20010904/DTD/svg10.dtd">
<svg version="1.0" xmlns="http://www.w3.org/2000/svg"
 width="500.000000pt" height="500.000000pt" viewBox="0 0 500.000000 500.000000"
 preserveAspectRatio="xMidYMid meet">
<metadata>
Created by potrace 1.14, written by Peter Selinger 2001-2017
</metadata>
<g transform="translate(0.000000,500.000000) scale(0.100000,-0.100000)"
fill="#000000" stroke="none">
<path d="M0 2500 l0 -2500 2500 0 2500 0 0 2500 0 2500 -2500 0 -2500 0 0
-2500z m1975 925 c94 -25 145 -54 211 -120 79 -80 112 -159 127 -303 7 -75 7
-109 -1 -127 -12 -25 -12 -25 -151 -25 -99 0 -141 4 -149 13 -5 6 -12 51 -13
99 -5 99 -21 131 -82 161 -78 39 -174 -10 -196 -100 -19 -75 -1 -144 57 -220
l24 -33 -185 0 -186 0 -11 38 c-21 73 -24 204 -6 285 54 243 313 396 561 332z
m1206 5 c134 -25 273 -127 336 -247 42 -78 53 -141 53 -288 l0 -125 -170 0
-170 0 0 122 c0 138 -16 190 -69 221 -42 25 -111 22 -152 -6 -53 -35 -62 -66
-67 -209 l-4 -128 -165 0 -165 0 4 168 c3 154 6 171 29 223 35 74 134 178 208
217 102 55 218 73 332 52z m-1931 -670 c0 -7 423 -10 1250 -10 827 0 1250 3
1250 10 0 6 70 10 190 10 l190 0 0 -270 0 -270 -190 0 c-120 0 -190 4 -190 10
0 7 -423 10 -1250 10 -827 0 -1250 -3 -1250 -10 0 -6 -68 -10 -185 -10 l-185
0 0 270 0 270 185 0 c117 0 185 -4 185 -10z m1080 -596 c7 -38 11 -103 8 -153
-4 -72 -11 -100 -38 -157 -60 -125 -170 -213 -311 -248 -80 -20 -143 -20 -233
-1 -160 34 -268 127 -326 280 -27 74 -41 255 -20 280 10 12 39 15 151 15 161
0 159 1 159 -100 0 -114 44 -171 138 -177 45 -3 64 0 90 16 78 49 95 152 44
255 l-29 56 177 0 178 0 12 -66z m608 -236 l-3 -303 -160 0 -160 0 -3 303 -2
302 165 0 165 0 -2 -302z m632 16 c0 -177 -4 -293 -10 -305 -10 -17 -23 -19
-160 -19 -137 0 -150 2 -160 19 -6 12 -10 128 -10 305 l0 286 170 0 170 0 0
-286z"/>
<path d="M1517 2563 c-17 -16 -6 -63 18 -79 25 -16 34 -44 15 -44 -5 0 -10 5
-10 10 0 6 -7 10 -15 10 -26 0 -17 -39 10 -46 53 -13 75 49 30 84 -25 20 -33
42 -15 42 6 0 10 -4 10 -10 0 -5 7 -10 15 -10 16 0 19 9 9 34 -6 16 -54 22
-67 9z"/>
<path d="M1730 2490 c0 -64 3 -80 15 -80 12 0 15 16 15 80 0 64 -3 80 -15 80
-12 0 -15 -16 -15 -80z"/>
<path d="M1907 2563 c-4 -3 -7 -39 -7 -80 0 -58 3 -73 15 -73 12 0 15 14 15
65 0 37 4 65 10 65 6 0 10 -28 10 -65 0 -50 3 -65 15 -65 10 0 15 16 17 62 2
38 8 63 16 66 9 3 12 -14 12 -62 0 -52 3 -66 15 -66 12 0 15 14 15 68 0 40 -5
73 -12 80 -13 13 -110 17 -121 5z"/>
<path d="M2180 2490 c0 -64 3 -80 15 -80 8 0 15 9 15 20 0 13 7 20 20 20 23 0
40 28 40 67 0 38 -16 53 -57 53 l-33 0 0 -80z m58 23 c-4 -39 -28 -42 -28 -4
0 21 5 31 16 31 11 0 14 -8 12 -27z"/>
<path d="M2400 2490 l0 -80 40 0 c29 0 40 4 40 15 0 9 -9 15 -25 15 -24 0 -25
2 -25 65 0 51 -3 65 -15 65 -12 0 -15 -16 -15 -80z"/>
<path d="M2610 2490 c0 -64 3 -80 15 -80 12 0 15 16 15 80 0 64 -3 80 -15 80
-12 0 -15 -16 -15 -80z"/>
<path d="M2792 2558 c-7 -7 -12 -40 -12 -80 0 -54 3 -68 15 -68 12 0 15 14 15
65 0 51 3 65 15 65 12 0 15 -14 15 -65 0 -51 3 -65 15 -65 12 0 15 14 15 68 0
72 -10 92 -45 92 -12 0 -26 -5 -33 -12z"/>
<path d="M3017 2564 c-4 -4 -7 -38 -7 -76 0 -75 8 -86 55 -74 25 6 26 9 23 79
l-3 72 -30 3 c-17 2 -34 0 -38 -4z m43 -74 c0 -27 -4 -50 -10 -50 -5 0 -10 23
-10 50 0 28 5 50 10 50 6 0 10 -22 10 -50z"/>
<path d="M3220 2560 c0 -6 7 -13 15 -16 11 -5 15 -22 15 -70 0 -50 3 -64 15
-64 12 0 15 14 15 64 0 48 4 65 15 70 30 11 14 26 -30 26 -25 0 -45 -5 -45
-10z"/>
<path d="M3440 2490 l0 -80 41 0 c43 0 52 22 11 28 -29 4 -30 42 -2 42 11 0
20 5 20 11 0 6 -9 13 -20 16 -27 7 -26 31 2 35 41 6 32 28 -11 28 l-41 0 0
-80z"/>
</g>
</svg>
